<svg width="465" height="135" viewBox="0 0 465 135" fill="none" xmlns="http://www.w3.org/2000/svg">
<path d="M411.621 90.9461C427.682 90.9461 440.702 77.9434 440.702 61.9037C440.702 45.864 427.682 32.8613 411.621 32.8613C395.561 32.8613 382.541 45.864 382.541 61.9037C382.541 77.9434 395.561 90.9461 411.621 90.9461Z" stroke="#3175D6" stroke-width="1.5" stroke-miterlimit="10" stroke-dasharray="6.02 6.02"/>
<path d="M151.585 66.5339C166.947 66.5339 179.401 54.0965 179.401 38.7543C179.401 23.412 166.947 10.9746 151.585 10.9746C136.223 10.9746 123.769 23.412 123.769 38.7543C123.769 54.0965 136.223 66.5339 151.585 66.5339Z" stroke="#6CFFD5" stroke-width="1.5" stroke-linecap="round" stroke-linejoin="round" stroke-dasharray="6.1 6.1"/>
<path opacity="0.25" d="M232.504 134.754C360.523 134.754 464.303 130.977 464.303 126.319C464.303 121.66 360.523 117.884 232.504 117.884C104.485 117.884 0.704834 121.66 0.704834 126.319C0.704834 130.977 104.485 134.754 232.504 134.754Z" fill="#DBDBDB"/>
<g style="mix-blend-mode:multiply" opacity="0.25">
<path d="M240.933 129.214C355.917 129.214 449.131 127.809 449.131 126.075C449.131 124.34 355.917 122.935 240.933 122.935C125.949 122.935 32.7354 124.34 32.7354 126.075C32.7354 127.809 125.949 129.214 240.933 129.214Z" fill="#D8D8D8"/>
</g>
<path d="M33.1567 105.955L97.639 67.3754L124.098 80.0025L168.443 47.172L184.458 53.9065L203.002 36.2285L258.794 71.0878L293.193 41.2793L369.055 98.5223L449.603 18.0791" stroke="#14407D" stroke-width="2" stroke-linecap="round" stroke-linejoin="round"/>
<path d="M450.665 25.8325L448.127 19.5526L441.839 17.0104L456.717 10.9746L450.665 25.8325Z" fill="#14407D"/>
<path d="M143.002 14.9932H11.003C8.58225 14.9932 6.61987 16.953 6.61987 19.3706V40.079C6.61987 42.4966 8.58225 44.4564 11.003 44.4564H143.002C145.423 44.4564 147.385 42.4966 147.385 40.079V19.3706C147.385 16.953 145.423 14.9932 143.002 14.9932Z" fill="#3175D6"/>
<path d="M137.27 21.0967H44.5505V24.4639H137.27V21.0967Z" fill="white"/>
<path d="M122.098 27.8311H44.5505V31.1983H122.098V27.8311Z" fill="white"/>
<path d="M129.684 34.5645H44.5505V37.9317H129.684V34.5645Z" fill="white"/>
<g style="mix-blend-mode:multiply" opacity="0.25">
<path d="M142.994 14.9932H139.799V35.0198C139.799 36.183 139.336 37.2985 138.513 38.121C137.689 38.9435 136.572 39.4056 135.407 39.4056H6.61988V40.0706C6.61874 40.6497 6.73267 41.2233 6.95508 41.7582C7.17748 42.293 7.50394 42.7784 7.91553 43.1864C8.32713 43.5943 8.81568 43.9166 9.35289 44.1346C9.8901 44.3526 10.4653 44.462 11.0451 44.4565H142.994C143.57 44.4565 144.141 44.343 144.674 44.1226C145.207 43.9022 145.691 43.5791 146.099 43.1719C146.507 42.7646 146.83 42.2811 147.051 41.749C147.271 41.2169 147.385 40.6466 147.385 40.0706V19.3706C147.385 18.795 147.271 18.2251 147.051 17.6935C146.83 17.1618 146.506 16.6789 146.098 16.2723C145.69 15.8657 145.206 15.5435 144.673 15.324C144.141 15.1045 143.57 14.9921 142.994 14.9932Z" fill="#3175D6"/>
</g>
<g style="mix-blend-mode:screen" opacity="0.35">
<path d="M101.185 14.9932H10.6742C8.43508 14.9932 6.61987 16.806 6.61987 19.0423V27.9907C6.61987 30.2269 8.43508 32.0398 10.6742 32.0398H101.185C103.425 32.0398 105.24 30.2269 105.24 27.9907V19.0423C105.24 16.806 103.425 14.9932 101.185 14.9932Z" fill="#3175D6"/>
</g>
<path d="M24.3207 41.5101C30.838 41.5101 36.1214 36.2336 36.1214 29.7248C36.1214 23.2159 30.838 17.9395 24.3207 17.9395C17.8034 17.9395 12.52 23.2159 12.52 29.7248C12.52 36.2336 17.8034 41.5101 24.3207 41.5101Z" fill="white"/>
<g style="mix-blend-mode:multiply">
<path d="M209.178 98.5308C209.717 98.5465 210.254 98.4556 210.758 98.2633C211.263 98.071 211.724 97.7812 212.115 97.4104C212.507 97.0396 212.821 96.5952 213.04 96.1028C213.26 95.6103 213.379 95.0794 213.392 94.5406H204.963C204.976 95.0794 205.096 95.6103 205.315 96.1028C205.534 96.5952 205.849 97.0396 206.24 97.4104C206.632 97.7812 207.093 98.071 207.597 98.2633C208.101 98.4556 208.638 98.5465 209.178 98.5308ZM223.347 89.1867C222.083 87.8903 219.714 85.9458 219.714 79.5649C219.714 74.716 216.132 70.8353 211.285 69.8757V68.6045C211.285 68.0464 211.063 67.5111 210.668 67.1164C210.273 66.7217 209.737 66.5 209.178 66.5C208.619 66.5 208.083 66.7217 207.688 67.1164C207.292 67.5111 207.07 68.0464 207.07 68.6045V69.9009C202.249 70.8606 198.641 74.7413 198.641 79.5901C198.641 85.971 196.264 87.9156 195 89.212C194.821 89.3893 194.678 89.6004 194.582 89.833C194.485 90.0657 194.435 90.3153 194.435 90.5673C194.442 90.8367 194.502 91.1021 194.611 91.3484C194.721 91.5946 194.878 91.8168 195.074 92.0022C195.27 92.1876 195.5 92.3325 195.752 92.4286C196.004 92.5248 196.273 92.5702 196.543 92.5624H221.72C221.99 92.5713 222.259 92.5267 222.512 92.431C222.764 92.3352 222.995 92.1904 223.191 92.0048C223.387 91.8192 223.545 91.5965 223.654 91.3497C223.763 91.103 223.822 90.837 223.827 90.5673C223.844 90.3167 223.81 90.0654 223.728 89.8282C223.645 89.591 223.516 89.3728 223.347 89.1867Z" fill="#3175D6"/>
</g>
<g style="mix-blend-mode:multiply" opacity="0.5">
<g style="mix-blend-mode:multiply" opacity="0.5">
<path d="M208.748 67.7623V69.0587C209.62 69.2407 210.469 69.5232 211.276 69.9005V68.6041C211.27 68.3355 211.21 68.0707 211.101 67.825C210.992 67.5794 210.836 67.3576 210.641 67.1723C210.446 66.987 210.216 66.8419 209.965 66.7453C209.714 66.6486 209.447 66.6023 209.178 66.609C208.924 66.6106 208.673 66.6562 208.436 66.7437C208.638 67.0452 208.746 67.3995 208.748 67.7623Z" fill="#3175D6"/>
</g>
<g style="mix-blend-mode:multiply" opacity="0.5">
<path d="M223.347 89.1862C222.083 87.8898 219.714 85.9452 219.714 79.5643C219.714 74.7492 216.182 70.8937 211.42 69.9004C213.116 70.6698 214.556 71.9077 215.57 73.4679C216.584 75.0282 217.13 76.8456 217.143 78.7057C217.143 85.0866 219.512 87.0312 220.776 88.3276C220.957 88.5037 221.1 88.7146 221.197 88.9475C221.294 89.1805 221.343 89.4306 221.341 89.6829C221.335 89.9526 221.276 90.2186 221.167 90.4653C221.058 90.7121 220.901 90.9347 220.705 91.1203C220.509 91.306 220.278 91.4508 220.025 91.5465C219.773 91.6423 219.503 91.6869 219.234 91.678H194.874C195.069 91.9403 195.323 92.1532 195.616 92.2994C195.909 92.4456 196.232 92.5211 196.559 92.5198H221.737C222.007 92.5288 222.276 92.4841 222.529 92.3884C222.781 92.2926 223.012 92.1478 223.208 91.9622C223.404 91.7765 223.561 91.5539 223.671 91.3071C223.78 91.0604 223.839 90.7944 223.844 90.5247C223.862 90.0304 223.683 89.5491 223.347 89.1862Z" fill="#3175D6"/>
</g>
</g>
<path d="M219.132 78.0657C220.181 78.0245 221.194 77.6762 222.046 77.0643C222.898 76.4525 223.552 75.6039 223.925 74.6242C224.298 73.6446 224.374 72.577 224.144 71.5543C223.915 70.5317 223.389 69.599 222.633 68.8723C221.876 68.1456 220.923 67.657 219.891 67.4673C218.859 67.2775 217.793 67.3949 216.828 67.805C215.862 68.215 215.038 68.8996 214.459 69.7735C213.879 70.6474 213.57 71.6721 213.569 72.7202C213.6 74.1649 214.203 75.5384 215.245 76.5402C216.288 77.542 217.686 78.0905 219.132 78.0657Z" fill="#6CFFD5"/>
<g style="mix-blend-mode:screen" opacity="0.45">
<g style="mix-blend-mode:screen" opacity="0.45">
<path d="M196.163 90.5418C196.163 90.2898 196.212 90.0402 196.309 89.8075C196.406 89.5749 196.549 89.3638 196.728 89.1865C197.992 87.8901 200.369 85.9455 200.369 79.5646C200.369 74.7158 203.943 70.8351 208.798 69.8754V68.6043C208.803 68.2099 208.925 67.8259 209.149 67.5008C209.372 67.1756 209.688 66.924 210.054 66.7775C209.787 66.6662 209.501 66.609 209.211 66.6092C208.94 66.5979 208.668 66.6408 208.413 66.7354C208.158 66.83 207.925 66.9744 207.726 67.1601C207.528 67.3459 207.368 67.5692 207.257 67.8172C207.146 68.0651 207.085 68.3327 207.079 68.6043V69.9007C202.257 70.8603 198.65 74.741 198.65 79.5899C198.65 85.9708 196.273 87.9153 195.008 89.2117C194.829 89.389 194.687 89.6001 194.59 89.8328C194.493 90.0655 194.443 90.315 194.444 90.567C194.45 90.8364 194.51 91.1019 194.619 91.3481C194.729 91.5943 194.886 91.8165 195.082 92.0019C195.278 92.1873 195.508 92.3322 195.761 92.4284C196.013 92.5245 196.281 92.57 196.551 92.5621H198.237C197.968 92.5655 197.701 92.5158 197.451 92.4161C197.201 92.3164 196.973 92.1685 196.781 91.9809C196.588 91.7933 196.435 91.5696 196.329 91.3227C196.223 91.0758 196.166 90.8104 196.163 90.5418Z" fill="#3175D6"/>
</g>
<g style="mix-blend-mode:screen" opacity="0.45">
<path d="M206.666 94.54H204.98C204.993 95.0788 205.113 95.6097 205.332 96.1022C205.551 96.5947 205.865 97.0391 206.257 97.4098C206.649 97.7806 207.11 98.0705 207.614 98.2627C208.118 98.455 208.655 98.5459 209.195 98.5302C209.478 98.5318 209.76 98.5036 210.037 98.446C209.108 98.2893 208.262 97.8132 207.647 97.1001C207.031 96.3869 206.684 95.4814 206.666 94.54Z" fill="#3175D6"/>
</g>
</g>
<g style="mix-blend-mode:screen" opacity="0.45">
<path d="M205.857 78.3184C207.02 78.3184 207.964 77.3762 207.964 76.2139C207.964 75.0516 207.02 74.1094 205.857 74.1094C204.693 74.1094 203.749 75.0516 203.749 76.2139C203.749 77.3762 204.693 78.3184 205.857 78.3184Z" fill="#3175D6"/>
</g>
<g style="mix-blend-mode:multiply">
<path d="M219.132 67.3746C218.707 67.3755 218.283 67.4235 217.868 67.5177C219.081 67.7474 220.176 68.3927 220.964 69.3425C221.752 70.2923 222.183 71.4869 222.183 72.7201C222.183 73.9534 221.752 75.148 220.964 76.0977C220.176 77.0475 219.081 77.6929 217.868 77.9225C218.283 78.0126 218.707 78.0605 219.132 78.0656C219.86 78.1064 220.589 77.9984 221.274 77.7483C221.959 77.4981 222.586 77.1109 223.116 76.6106C223.646 76.1102 224.068 75.5071 224.356 74.8381C224.645 74.1692 224.794 73.4485 224.794 72.7201C224.794 71.9918 224.645 71.2711 224.356 70.6021C224.068 69.9332 223.646 69.3301 223.116 68.8297C222.586 68.3293 221.959 67.9422 221.274 67.692C220.589 67.4418 219.86 67.3338 219.132 67.3746Z" fill="#6CFFD5"/>
</g>
<g style="mix-blend-mode:screen" opacity="0.75">
<path d="M217.236 72.4258C218.167 72.4258 218.922 71.672 218.922 70.7422C218.922 69.8124 218.167 69.0586 217.236 69.0586C216.305 69.0586 215.55 69.8124 215.55 70.7422C215.55 71.672 216.305 72.4258 217.236 72.4258Z" fill="#6CFFD5"/>
</g>
<g style="mix-blend-mode:multiply" opacity="0.5">
<path d="M210.956 96.8382C211.582 96.8518 212.187 96.6177 212.64 96.1872C213.094 95.7566 213.358 95.1645 213.376 94.54H208.546C208.561 95.1637 208.824 95.7559 209.275 96.1867C209.727 96.6175 210.332 96.8517 210.956 96.8382Z" fill="#3175D6"/>
</g>
<path d="M33.5781 110.308C35.9057 110.308 37.7926 108.423 37.7926 106.099C37.7926 103.774 35.9057 101.89 33.5781 101.89C31.2504 101.89 29.3635 103.774 29.3635 106.099C29.3635 108.423 31.2504 110.308 33.5781 110.308Z" fill="#14407D"/>
<g style="mix-blend-mode:screen" opacity="0.55">
<path d="M32.7353 107.782C34.1318 107.782 35.264 106.652 35.264 105.257C35.264 103.862 34.1318 102.731 32.7353 102.731C31.3387 102.731 30.2065 103.862 30.2065 105.257C30.2065 106.652 31.3387 107.782 32.7353 107.782Z" fill="#14407D"/>
</g>
<path d="M97.6388 71.5841C99.9665 71.5841 101.853 69.6996 101.853 67.3751C101.853 65.0505 99.9665 63.166 97.6388 63.166C95.3112 63.166 93.4243 65.0505 93.4243 67.3751C93.4243 69.6996 95.3112 71.5841 97.6388 71.5841Z" fill="#14407D"/>
<g style="mix-blend-mode:screen" opacity="0.55">
<path d="M96.7961 69.0587C98.1926 69.0587 99.3248 67.928 99.3248 66.5332C99.3248 65.1385 98.1926 64.0078 96.7961 64.0078C95.3995 64.0078 94.2673 65.1385 94.2673 66.5332C94.2673 67.928 95.3995 69.0587 96.7961 69.0587Z" fill="#14407D"/>
</g>
<path d="M123.769 84.212C126.097 84.212 127.984 82.3276 127.984 80.003C127.984 77.6784 126.097 75.7939 123.769 75.7939C121.441 75.7939 119.554 77.6784 119.554 80.003C119.554 82.3276 121.441 84.212 123.769 84.212Z" fill="#14407D"/>
<g style="mix-blend-mode:screen" opacity="0.55">
<path d="M122.926 81.6866C124.323 81.6866 125.455 80.5559 125.455 79.1612C125.455 77.7664 124.323 76.6357 122.926 76.6357C121.53 76.6357 120.397 77.7664 120.397 79.1612C120.397 80.5559 121.53 81.6866 122.926 81.6866Z" fill="#14407D"/>
</g>
<path d="M167.6 52.2228C169.928 52.2228 171.815 50.3383 171.815 48.0137C171.815 45.6891 169.928 43.8047 167.6 43.8047C165.272 43.8047 163.385 45.6891 163.385 48.0137C163.385 50.3383 165.272 52.2228 167.6 52.2228Z" fill="#14407D"/>
<g style="mix-blend-mode:screen" opacity="0.55">
<path d="M166.757 49.6973C168.154 49.6973 169.286 48.5667 169.286 47.1719C169.286 45.7772 168.154 44.6465 166.757 44.6465C165.361 44.6465 164.229 45.7772 164.229 47.1719C164.229 48.5667 165.361 49.6973 166.757 49.6973Z" fill="#14407D"/>
</g>
<path d="M184.458 58.1153C186.786 58.1153 188.673 56.2309 188.673 53.9063C188.673 51.5817 186.786 49.6973 184.458 49.6973C182.131 49.6973 180.244 51.5817 180.244 53.9063C180.244 56.2309 182.131 58.1153 184.458 58.1153Z" fill="#14407D"/>
<g style="mix-blend-mode:screen" opacity="0.55">
<path d="M183.615 55.5899C185.012 55.5899 186.144 54.4592 186.144 53.0645C186.144 51.6697 185.012 50.5391 183.615 50.5391C182.219 50.5391 181.087 51.6697 181.087 53.0645C181.087 54.4592 182.219 55.5899 183.615 55.5899Z" fill="#14407D"/>
</g>
<path d="M203.002 41.2794C205.33 41.2794 207.217 39.395 207.217 37.0704C207.217 34.7458 205.33 32.8613 203.002 32.8613C200.675 32.8613 198.788 34.7458 198.788 37.0704C198.788 39.395 200.675 41.2794 203.002 41.2794Z" fill="#14407D"/>
<g style="mix-blend-mode:screen" opacity="0.55">
<path d="M202.159 38.754C203.556 38.754 204.688 37.6233 204.688 36.2285C204.688 34.8338 203.556 33.7031 202.159 33.7031C200.763 33.7031 199.63 34.8338 199.63 36.2285C199.63 37.6233 200.763 38.754 202.159 38.754Z" fill="#14407D"/>
</g>
<path d="M258.634 74.1095C260.962 74.1095 262.849 72.225 262.849 69.9004C262.849 67.5759 260.962 65.6914 258.634 65.6914C256.306 65.6914 254.419 67.5759 254.419 69.9004C254.419 72.225 256.306 74.1095 258.634 74.1095Z" fill="#14407D"/>
<g style="mix-blend-mode:screen" opacity="0.55">
<path d="M257.791 71.5841C259.187 71.5841 260.32 70.4534 260.32 69.0586C260.32 67.6639 259.187 66.5332 257.791 66.5332C256.394 66.5332 255.262 67.6639 255.262 69.0586C255.262 70.4534 256.394 71.5841 257.791 71.5841Z" fill="#14407D"/>
</g>
<path d="M293.193 45.4884C295.521 45.4884 297.408 43.6039 297.408 41.2794C297.408 38.9548 295.521 37.0703 293.193 37.0703C290.865 37.0703 288.979 38.9548 288.979 41.2794C288.979 43.6039 290.865 45.4884 293.193 45.4884Z" fill="#14407D"/>
<g style="mix-blend-mode:screen" opacity="0.55">
<path d="M292.35 42.963C293.747 42.963 294.879 41.8323 294.879 40.4375C294.879 39.0428 293.747 37.9121 292.35 37.9121C290.953 37.9121 289.821 39.0428 289.821 40.4375C289.821 41.8323 290.953 42.963 292.35 42.963Z" fill="#14407D"/>
</g>
<path d="M369.054 102.732C371.382 102.732 373.269 100.847 373.269 98.5225C373.269 96.1979 371.382 94.3135 369.054 94.3135C366.727 94.3135 364.84 96.1979 364.84 98.5225C364.84 100.847 366.727 102.732 369.054 102.732Z" fill="#14407D"/>
<g style="mix-blend-mode:screen" opacity="0.55">
<path d="M368.212 100.206C369.608 100.206 370.74 99.0755 370.74 97.6807C370.74 96.2859 369.608 95.1553 368.212 95.1553C366.815 95.1553 365.683 96.2859 365.683 97.6807C365.683 99.0755 366.815 100.206 368.212 100.206Z" fill="#14407D"/>
</g>
<path d="M97.6389 106.099C101.829 106.099 105.225 102.707 105.225 98.5226C105.225 94.3383 101.829 90.9463 97.6389 90.9463C93.4492 90.9463 90.0527 94.3383 90.0527 98.5226C90.0527 102.707 93.4492 106.099 97.6389 106.099Z" fill="#BDE0FC"/>
<g style="mix-blend-mode:screen" opacity="0.65">
<path d="M96.3746 100.206C98.4695 100.206 100.168 98.5101 100.168 96.418C100.168 94.3259 98.4695 92.6299 96.3746 92.6299C94.2798 92.6299 92.5815 94.3259 92.5815 96.418C92.5815 98.5101 94.2798 100.206 96.3746 100.206Z" fill="#BDE0FC"/>
</g>
<path d="M451.332 105.17C451.026 105.17 450.732 105.048 450.516 104.832C450.299 104.616 450.177 104.323 450.177 104.017V87.8877C450.177 87.5818 450.299 87.2884 450.516 87.0722C450.732 86.8559 451.026 86.7344 451.332 86.7344C451.639 86.7344 451.932 86.8559 452.149 87.0722C452.365 87.2884 452.487 87.5818 452.487 87.8877V104.017C452.487 104.323 452.365 104.616 452.149 104.832C451.932 105.048 451.639 105.17 451.332 105.17Z" fill="#6CFFD5"/>
<g style="mix-blend-mode:multiply">
<path d="M451.332 86.7344C451.218 86.7382 451.105 86.7552 450.995 86.7849C451.236 86.8525 451.449 86.9966 451.601 87.1955C451.753 87.3945 451.836 87.6374 451.838 87.8877V104.017C451.836 104.267 451.753 104.51 451.601 104.709C451.449 104.908 451.236 105.052 450.995 105.119C451.104 105.153 451.218 105.17 451.332 105.17C451.484 105.17 451.634 105.14 451.774 105.082C451.914 105.024 452.042 104.939 452.149 104.832C452.256 104.725 452.341 104.598 452.399 104.458C452.457 104.318 452.487 104.168 452.487 104.017V87.8877C452.487 87.5818 452.365 87.2884 452.149 87.0722C451.932 86.8559 451.639 86.7344 451.332 86.7344Z" fill="#6CFFD5"/>
</g>
<path d="M459.407 97.1054H443.249C442.943 97.1054 442.649 96.9839 442.432 96.7676C442.216 96.5513 442.094 96.258 442.094 95.9521C442.094 95.6462 442.216 95.3529 442.432 95.1366C442.649 94.9203 442.943 94.7988 443.249 94.7988H459.407C459.714 94.7988 460.007 94.9203 460.224 95.1366C460.44 95.3529 460.562 95.6462 460.562 95.9521C460.562 96.258 460.44 96.5513 460.224 96.7676C460.007 96.9839 459.714 97.1054 459.407 97.1054Z" fill="#6CFFD5"/>
<g style="mix-blend-mode:multiply">
<path d="M459.812 94.875C459.883 95.0489 459.91 95.2377 459.89 95.4244C459.87 95.6112 459.804 95.7902 459.698 95.9453C459.592 96.1004 459.449 96.2268 459.282 96.3133C459.115 96.3998 458.929 96.4436 458.741 96.4408H442.583C442.445 96.4376 442.308 96.412 442.178 96.365C442.26 96.5824 442.407 96.7696 442.598 96.902C442.789 97.0343 443.016 97.1054 443.249 97.1058H459.407C459.677 97.1042 459.937 97.0085 460.143 96.8355C460.349 96.6624 460.488 96.4228 460.536 96.1581C460.584 95.8934 460.538 95.6202 460.406 95.3859C460.274 95.1516 460.063 94.9709 459.812 94.875Z" fill="#6CFFD5"/>
</g>
<path d="M297.726 62.8213L301.763 70.9952L310.791 72.3085L304.258 78.6641L305.801 87.6462L297.726 83.4035L289.651 87.6462L291.193 78.6641L284.661 72.3085L293.688 70.9952L297.726 62.8213Z" fill="#BDE0FC"/>
<g style="mix-blend-mode:multiply" opacity="0.5">
<g style="mix-blend-mode:multiply" opacity="0.5">
<path d="M310.791 72.3086L308.388 71.9551L302.429 77.7551L303.963 86.6783L305.801 87.6464L304.258 78.6643L310.791 72.3086Z" fill="#BDE0FC"/>
</g>
</g>
<g style="mix-blend-mode:screen" opacity="0.45">
<g style="mix-blend-mode:screen" opacity="0.45">
<path d="M292.828 85.971L293.933 79.5733L287.4 73.2176L296.428 71.9044L299.319 66.0454L297.726 62.8213L293.688 70.9952L284.661 72.3085L291.193 78.6641L289.651 87.6462L292.828 85.971Z" fill="#BDE0FC"/>
</g>
</g>
<path d="M389.9 22.3516H360.011C359.426 22.3505 358.846 22.4646 358.305 22.6875C357.764 22.9104 357.272 23.2376 356.858 23.6504C356.444 24.0633 356.115 24.5536 355.891 25.0934C355.667 25.6332 355.552 26.2119 355.552 26.7963V50.7289C355.552 51.91 356.022 53.0426 356.858 53.8778C357.694 54.7129 358.828 55.1821 360.011 55.1821H364.824L369.038 59.3911L373.253 55.1821H389.866C390.452 55.1821 391.032 55.0669 391.573 54.8431C392.114 54.6193 392.605 54.2913 393.019 53.8778C393.433 53.4643 393.762 52.9734 393.986 52.4331C394.21 51.8928 394.325 51.3137 394.325 50.7289V26.7963C394.325 25.6219 393.86 24.4951 393.031 23.6623C392.202 22.8295 391.076 22.3582 389.9 22.3516Z" fill="#6CFFD5"/>
<path d="M385.087 32.7148C384.743 31.9225 384.248 31.2048 383.629 30.6018C382.535 29.5449 381.121 28.8793 379.609 28.7088C378.096 28.5383 376.57 28.8724 375.267 29.659C375.014 29.8176 374.77 29.989 374.534 30.1725C374.301 29.9851 374.056 29.8136 373.801 29.659C372.502 28.8645 370.975 28.5257 369.462 28.6965C367.949 28.8673 366.536 29.5379 365.448 30.6018C364.812 31.2136 364.307 31.9473 363.962 32.7588C363.617 33.5702 363.44 34.4429 363.441 35.3244C363.452 36.2272 363.63 37.1203 363.964 37.9592C364.287 38.7809 364.703 39.5632 365.203 40.291C366.196 41.7098 367.35 43.0091 368.642 44.1633C370.15 45.5464 371.768 46.8048 373.48 47.9262L374.096 48.3134C374.224 48.3873 374.369 48.4262 374.517 48.4262C374.665 48.4262 374.811 48.3873 374.939 48.3134L375.546 47.9262C377.256 46.8025 378.874 45.5442 380.384 44.1633C381.676 43.0091 382.83 41.7098 383.823 40.291C384.323 39.5632 384.739 38.7809 385.062 37.9592C385.396 37.1203 385.574 36.2272 385.585 35.3244C385.601 34.4295 385.432 33.5409 385.087 32.7148Z" fill="white"/>
<path d="M368.541 29.4736C369.801 29.4715 371.037 29.8151 372.115 30.4669C372.371 30.6215 372.616 30.7931 372.848 30.9804C373.084 30.7969 373.329 30.6255 373.582 30.4669C373.853 30.3091 374.135 30.1685 374.424 30.046C374.234 29.8935 374.034 29.7529 373.826 29.6251C372.901 29.0688 371.858 28.7358 370.781 28.6525C369.704 28.5693 368.622 28.738 367.622 29.1453C367.177 29.3313 366.753 29.5656 366.358 29.844C367.06 29.6012 367.798 29.476 368.541 29.4736Z" fill="#BDE0FC"/>
<path d="M385.087 32.7145C384.743 31.9222 384.248 31.2045 383.629 30.6015C382.535 29.5447 381.121 28.8791 379.609 28.7085C378.096 28.538 376.57 28.8721 375.267 29.6587C375.158 29.7261 375.057 29.8102 374.955 29.8776C375.664 29.6362 376.407 29.5112 377.155 29.5072C378.945 29.497 380.665 30.1928 381.943 31.4433C382.562 32.0463 383.057 32.764 383.401 33.5563C383.761 34.3793 383.944 35.268 383.941 36.1659C383.93 37.0687 383.753 37.9619 383.418 38.8007C383.095 39.6224 382.679 40.4047 382.179 41.1326C381.186 42.5513 380.032 43.8507 378.74 45.0049C377.378 46.2433 375.933 47.388 374.416 48.431C374.612 48.4593 374.812 48.4176 374.981 48.3132L375.588 47.9259C377.298 46.8022 378.916 45.5439 380.426 44.1631C381.718 43.0089 382.872 41.7095 383.865 40.2907C384.365 39.5629 384.781 38.7806 385.104 37.9589C385.438 37.1201 385.616 36.2269 385.627 35.3241C385.63 34.4262 385.446 33.5375 385.087 32.7145Z" fill="#BDE0FC"/>
<g style="mix-blend-mode:multiply">
<g style="mix-blend-mode:multiply">
<path d="M358.325 53.4991C357.557 53.495 356.804 53.2888 356.142 52.9014C356.525 53.5908 357.086 54.1656 357.766 54.5665C358.446 54.9675 359.221 55.1802 360.011 55.1827H364.824L363.138 53.4991H358.325Z" fill="#6CFFD5"/>
</g>
<g style="mix-blend-mode:multiply">
<path d="M392.083 22.9414C392.465 23.6022 392.668 24.3505 392.673 25.1133V49.0459C392.673 50.2269 392.204 51.3596 391.367 52.1947C390.531 53.0299 389.397 53.499 388.214 53.499H371.601L367.386 57.7081L369.072 59.3917L373.287 55.1826H389.9C391.083 55.1826 392.217 54.7135 393.053 53.8784C393.889 53.0432 394.359 51.9105 394.359 50.7295V26.7969C394.357 26.0103 394.145 25.2385 393.745 24.5608C393.345 23.8832 392.771 23.3242 392.083 22.9414Z" fill="#6CFFD5"/>
</g>
</g>
<g style="mix-blend-mode:screen" opacity="0.5">
<path d="M357.271 52.4125V28.4799C357.271 27.3055 357.737 26.1787 358.566 25.3459C359.395 24.5131 360.521 24.0419 361.697 24.0352H391.552C392.319 24.0363 393.072 24.2396 393.735 24.6244C393.351 23.936 392.79 23.3625 392.11 22.9629C391.43 22.5634 390.655 22.3523 389.866 22.3516H360.011C359.426 22.3505 358.846 22.4646 358.305 22.6875C357.764 22.9104 357.272 23.2376 356.858 23.6504C356.444 24.0633 356.115 24.5536 355.891 25.0934C355.667 25.6332 355.552 26.2119 355.552 26.7963V50.7289C355.553 51.5157 355.765 52.2879 356.165 52.9656C356.565 53.6434 357.139 54.2022 357.828 54.5844C357.458 53.9204 357.266 53.1723 357.271 52.4125Z" fill="#6CFFD5"/>
</g>
</svg>
